<svg xmlns="http://www.w3.org/2000/svg" viewBox="0 0 120.66 109.74">
  <defs>
    <style>
      .cls-1 {
        font-size: 12px;
        font-family: Oswald-Medium, Oswald Medium;
        font-weight: 500;
      }

      .cls-1, .cls-12, .cls-13, .cls-4 {
        fill: #22231e;
      }

      .cls-2 {
        letter-spacing: 0em;
      }

      .cls-3 {
        letter-spacing: -0.01em;
      }

      .cls-4 {
        font-size: 6px;
        font-family: Oswald-Light, Oswald Light;
        font-weight: 300;
        letter-spacing: 0.21em;
      }

      .cls-5 {
        letter-spacing: 0.2em;
      }

      .cls-6 {
        letter-spacing: 0.21em;
      }

      .cls-7 {
        letter-spacing: 0.21em;
      }

      .cls-8 {
        letter-spacing: 0.2em;
      }

      .cls-9 {
        letter-spacing: 0.2em;
      }

      .cls-10 {
        letter-spacing: 0.19em;
      }

      .cls-11 {
        letter-spacing: 0.19em;
      }

      .cls-12 {
        stroke: #0091a0;
      }

      .cls-12, .cls-13 {
        stroke-miterlimit: 10;
      }

      .cls-13 {
        stroke: #ff8500;
      }
    </style>
  </defs>
  <title>Asset 1</title>
  <g id="Layer_2" data-name="Layer 2">
    <g id="OBJECTS">
      <g>
        <g>
          <text class="cls-1" transform="translate(0 97.36)">SOUL<tspan class="cls-2" x="27.61" y="0">E</tspan><tspan class="cls-3" x="33.55" y="0">YM</tspan><tspan x="49.45" y="0">ANE DEMBELE</tspan></text>
          <text class="cls-4" transform="translate(26.78 108.24)">S<tspan class="cls-5" x="4.19" y="0">o</tspan><tspan class="cls-6" x="8.69" y="0">f</tspan><tspan class="cls-7" x="11.71" y="0">t</tspan><tspan class="cls-8" x="14.95" y="0">w</tspan><tspan class="cls-9" x="20.54" y="0">a</tspan><tspan class="cls-10" x="24.63" y="0">r</tspan><tspan class="cls-9" x="27.73" y="0">e En</tspan><tspan class="cls-11" x="43.09" y="0">g</tspan><tspan class="cls-5" x="47.61" y="0">ineer</tspan></text>
        </g>
        <g>
          <polygon class="cls-12" points="45.65 44.91 31.46 25.14 45.65 5.38 75.01 5.38 88.18 23.72 94.19 23.72 77.52 0.5 43.14 0.5 25.45 25.14 43.14 49.79 76.27 49.79 71.07 44.91 45.65 44.91"/>
          <polygon class="cls-13" points="77.52 19.84 44.39 19.84 49.59 24.72 75.01 24.72 89.2 44.48 75.01 64.25 45.65 64.25 32.48 45.91 26.47 45.91 43.14 69.13 77.52 69.13 95.21 44.48 77.52 19.84"/>
        </g>
      </g>
    </g>
  </g>
</svg>
