    <svg xmlns="http://www.w3.org/2000/svg" xmlns:xlink="http://www.w3.org/1999/xlink" viewBox="0 0 41.4 45.81">
    <style>
  .cls-1, .cls-10, .cls-11, .cls-12, .cls-2, .cls-3, .cls-4, .cls-5, .cls-6, .cls-7, .cls-8, .cls-9 {
        fill-rule: evenodd;
      }

      .cls-1 {
        fill: url(#linear-gradient);
      }

      .cls-2 {
        fill: #e4e6e7;
      }

      .cls-3 {
        fill: url(#linear-gradient-2);
      }

      .cls-5 {
        fill: url(#linear-gradient-3);
      }

      .cls-6 {
        fill: url(#linear-gradient-4);
      }

      .cls-7 {
        fill: url(#linear-gradient-5);
      }

      .cls-8 {
        fill: #b2b4b5;
      }

      .cls-9 {
        fill: #e06004;
      }

      .cls-10 {
        fill: url(#linear-gradient-6);
      }

      .cls-11 {
        fill: #e0e0e0;
      }

      .cls-12 {
        fill: url(#linear-gradient-7);
      }
</style>

  <defs>
    <linearGradient id="linear-gradient" x1="9.74" y1="1.08" x2="15.27" y2="27.59" gradientUnits="userSpaceOnUse">
      <stop offset="0" stop-color="#0074af"/>
      <stop offset="1" stop-color="#1dffe4"/>
    </linearGradient>
    <linearGradient id="linear-gradient-2" x1="10.14" y1="10.9" x2="10.66" y2="13.39" xlink:href="#linear-gradient"/>
    <linearGradient id="linear-gradient-3" x1="16.64" y1="4.57" x2="18.15" y2="11.78" xlink:href="#linear-gradient"/>
    <linearGradient id="linear-gradient-4" x1="10.26" y1="15.4" x2="12.91" y2="28.09" xlink:href="#linear-gradient"/>
    <linearGradient id="linear-gradient-5" x1="21.23" y1="11.93" x2="24.03" y2="25.36" xlink:href="#linear-gradient"/>
    <linearGradient id="linear-gradient-6" x1="22.28" y1="18.15" x2="28.27" y2="46.84" xlink:href="#linear-gradient"/>
    <linearGradient id="linear-gradient-7" x1="16.12" y1="19.44" x2="19.65" y2="36.37" xlink:href="#linear-gradient"/>
  </defs>
  <title>Asset 1</title>
  <g id="Layer_2" data-name="Layer 2">
    <g id="logo">
      <g>
        <path class="cls-1" d="M14.91,0s.39,6.77-1,8.16c0,0-9.1.16-8.39,4.68,0,0-.66,1.07-4.19,2.5v0h0v0h0v0h0v0h0v0h0v0h0v0h0v0h0v0h0v0h0v0h0v0h0v0h0v0h0v0h0v0h0v0h0v0h0v0h0v0h0v0h0v0h0v0h0v.08h0v0h0v0h0v0h0v0h0v0h0v0h0v0h0v0h0v0h0v0h0v0h0v0h0v0h0v0h0V17h0v0h0v0h0v0h0v0h0v0h0v0h0v0h0v0h0v0h0v0h0v0h0v0h0v0h0v0h0v0h0v0h0a8,8,0,0,0,5.76,1.53s4.36-.25,6.49,2.2a15,15,0,0,0-3.49-.39s.17,1.9-.45,2.65c.35,7.17,13.2,2.36,16.23,1.16,0,0-1.52-4.2-3.1-5.84a16,16,0,0,1,3.32,2.45s-3.51-7.23-6.61-9a8.79,8.79,0,0,1-1,1c2-4.64-.3-9.89-3.44-13.37"/>
        <path class="cls-2" d="M14.91,0s.39,6.77-1,8.16c0,0-9.1.16-8.39,4.68,0,0-.66,1.07-4.19,2.5h0v0h.14a9.7,9.7,0,0,0,2.67-1.36,6.91,6.91,0,0,1-1,1c.41-.15,2.56-1.49,2.9-2.29,0,0-1-2.77,4.37-4.11L9.14,9.7a17.29,17.29,0,0,1,5.09-1,7.8,7.8,0,0,0,1.25-4.89,7,7,0,0,1,.38,1.39,17.48,17.48,0,0,0,0-2.88,20.74,20.74,0,0,1,3.23,6.29A15.85,15.85,0,0,0,14.91,0"/>
        <path class="cls-3" d="M7.17,12.28c2.46.13,3-3.32,6.46-.29-3.33-.33-2,.34-3.68,1a2,2,0,0,0,.75.31,5.79,5.79,0,0,1-1.92,0,.86.86,0,0,0,.56.39c-.81.2-1.88-.73-2.17-1.39"/>
        <path class="cls-4" d="M16.39,4.58s.05,3-.58,3.84a5,5,0,0,1,0-1,5.37,5.37,0,0,1-.62,1.29s0,.12-.75.09c0,0,3,2.26,3.43,3.12a9.47,9.47,0,0,0-.18-2.83,1.31,1.31,0,0,1,.68.52c-.34-2.07-1.24-4.5-2-5.05"/>
        <path class="cls-5" d="M17.88,11.83a9.3,9.3,0,0,0-.19-2.72,1.31,1.31,0,0,1,.68.52c-.34-2-1.21-4.41-1.94-5v0a10.9,10.9,0,0,1,.92,3.83,2.52,2.52,0,0,0-.3-.79,14.05,14.05,0,0,1,.11,2.62,7.39,7.39,0,0,1,.73,1.54"/>
        <path class="cls-4" d="M7.57,12.51c1.64.13,2.89-2.29,4.75-.86-1.75-.32-1.39.76-2.67,1.2a.72.72,0,0,0,.2.24,2.6,2.6,0,0,1-2.28-.58"/>
        <path class="cls-6" d="M20.77,20.09c-6-10.15-13.39-1.85-19.44-2.8H1.18a8,8,0,0,0,5.76,1.53s4.36-.25,6.49,2.2h0c-.1,0-3.15-.77-4.44-.46,0,0-1.06,7,5.56,6.57A25.77,25.77,0,0,0,22,26c-.42-1.71-1.57-5.41-3.82-7.18a10.14,10.14,0,0,1,2.64,1.26"/>
        <path class="cls-2" d="M1.18,17.53a8,8,0,0,0,5.76,1.53s4.36-.25,6.49,2.2c0,0-3.16-.77-4.44-.46-.1.56-.81,7,5.56,6.57a10,10,0,0,0-.24-3.44c1.26.32,3.13,2.35,3.13,2.35.74-6.42-3.71-8.26-3.71-8.26a18.27,18.27,0,0,1,3.61.68c-3-3.74-8.52-2-8.52-2-4.19,1.56-6.62,1-7.55.67H1.18Z"/>
        <path class="cls-7" d="M20.32,17.07a19.34,19.34,0,0,1,3.41,8.35c.84-.29,1.53-.56,2-.74,0,0-1.52-4.2-3.1-5.84a16,16,0,0,1,3.32,2.45s-3.51-7.23-6.61-9a7.14,7.14,0,0,1-.63.71,21,21,0,0,1,4.3,4.9,17.31,17.31,0,0,0-2.68-.86"/>
        <path class="cls-8" d="M8.15,21.11C7,29.35,12.36,29.92,19,28.26c4.59-1.14,9.49-3.18,14.24-2.78,7.4.63,9.57,5.41,7.28,12.53,0,0-.54-4.35-2.31-5.86,0,0,5.09,8.37-5,13.66,0,0-.49-6.25-5-8.22-4-1.82-7.61-.55-11.87-1,5.59-.11,12.44-4,16.71.71,0,0-.36-7.58-6.81-7.48,0,0,1.71-3,6.58-3.68,0,0-6.52-.16-8.35,4.64,0,0,4.41-.53,6.44,3.24C24,32.71,18,37.9,12,35.27a6.94,6.94,0,0,0,5.42,2.29c-9.15,2.12-14.2-8.31-9.22-16.45"/>
        <path class="cls-9" d="M8.15,21.11C7,29.35,12.36,29.92,19,28.26c4.59-1.14,9.49-3.18,14.24-2.78,7.4.63,9.57,5.41,7.28,12.53,0,0-.54-4.35-2.31-5.86,0,0,5.09,8.37-5,13.66,0,0-.49-6.25-5-8.22-4-1.82-7.61-.55-11.87-1,5.59-.11,12.44-4,16.71.71,0,0-.36-7.58-6.81-7.48,0,0,1.71-3,6.58-3.68,0,0-6.52-.16-8.35,4.64,0,0,4.41-.53,6.44,3.24-4.67-.89-8.95,1.22-13.11,1.84a11.27,11.27,0,0,1-7.32-2.76,14,14,0,0,0,.7,2.61c-4-2.1-5-7.44-5-7.55a13,13,0,0,1,2-7"/>
        <path class="cls-10" d="M8.15,21.11C7,29.35,12.36,29.92,19,28.26c4.59-1.14,9.49-3.18,14.24-2.78,7.4.63,9.57,5.41,7.28,12.53,0,0-.54-4.35-2.31-5.86,0,0,5.09,8.37-5,13.66,0,0-.49-6.25-5-8.22-4-1.82-7.61-.55-11.87-1,5.59-.11,12.44-4,16.71.71,0,0-.36-7.58-6.81-7.48,0,0,1.71-3,6.58-3.68,0,0-6.52-.16-8.35,4.64,0,0,4.41-.53,6.44,3.24-6-6.19-15.66,2.7-20.8-2.41a11.3,11.3,0,0,0,6.17.4c-11.61.26-8.13-10.9-8.13-10.9"/>
        <path class="cls-2" d="M39.16,27.62C41.62,29.78,42,33.4,40.53,38c.2-7.83-3.78-8.23-3.78-8.23,1.41,2.08,1.2,6.73,1.2,6.73C36.59,28,26.24,29.82,26.24,29.82s1.71-3,6.58-3.68c0,0,4-.25,6.34,1.48"/>
        <path class="cls-8" d="M33.05,37.3c-4.27-4.75-11.12-.82-16.71-.71,4.26.45,7.91-.82,11.87,1,4.48,2,5,8.22,5,8.22,1.07-6.21-3-8.65-3-8.65,3.26.68,5.07,4.73,5.07,4.73.54-9.1-6-11.42-6-11.42,3.56,1.82,3.79,6.83,3.79,6.83"/>
        <path class="cls-11" d="M17,29.39c3.34.05,6.82-1.08,10.13-1.75a12.88,12.88,0,0,1,12,0C36.82,25.53,33,25.2,30,25.55c-3.7.42-7.43,1.83-11,2.71-4.68,1.17-8.73,1.23-10.31-1.7v0s1.42,5.22,11.78,3A27.45,27.45,0,0,1,17,29.39"/>
        <path class="cls-11" d="M.58,15.41c.32,0,.58.41.58.93s-.26.93-.58.93S0,16.86,0,16.34s.26-.93.58-.93"/>
        <path class="cls-12" d="M30.91,34c-6-6.19-15.66,2.7-20.8-2.41a11.3,11.3,0,0,0,6.17.4c-11.61.26-8.13-10.9-8.13-10.9a13,13,0,0,0-2,7.05c0,.11,1,5.45,5,7.55a14,14,0,0,1-.7-2.61,11.27,11.27,0,0,0,7.32,2.76C22,35.24,26.24,33.13,30.91,34"/>
        <path class="cls-8" d="M6.94,19.06s4.36-.25,6.49,2.2a16.09,16.09,0,0,0-4.25-.5L9,20.8s-.6,3.94,1.9,5.73a5.58,5.58,0,0,0,3.66.84c-3.44-.11-4.45-2.84-4.75-4.5a7,7,0,0,1-.12-1.24,1.36,1.36,0,0,1,.28-.08,19.76,19.76,0,0,1,4.63.53C12.54,17.3,8.78,18.24,4.3,18.92a10.42,10.42,0,0,0,2.64.14m7.61,8.31Z"/>
      </g>
    </g>
  </g>
</svg>

